<?xml version="1.0" standalone="no"?>
<!DOCTYPE svg PUBLIC "-//W3C//DTD SVG 20010904//EN"
 "http://www.w3.org/TR/2001/REC-SVG-20010904/DTD/svg10.dtd">
<svg version="1.0" xmlns="http://www.w3.org/2000/svg"
 width="700.000000pt" height="700.000000pt" viewBox="0 0 700.000000 700.000000"
 preserveAspectRatio="xMidYMid meet">
<metadata>
Created by potrace 1.14, written by Peter Selinger 2001-2017
</metadata>
<g transform="translate(0.000000,700.000000) scale(0.100000,-0.100000)"
fill="#000000" stroke="none">
<path d="M3417 6514 c-1 -1 -58 -4 -127 -8 -69 -3 -138 -8 -155 -11 -16 -2
-64 -9 -105 -15 -96 -13 -224 -38 -315 -61 -58 -15 -255 -78 -290 -94 -16 -7
-41 -16 -55 -20 -56 -17 -281 -130 -402 -202 -327 -195 -651 -488 -895 -809
-182 -240 -343 -543 -437 -824 -24 -72 -81 -283 -91 -339 -129 -687 -47 -1370
233 -1946 77 -157 231 -405 311 -500 14 -17 42 -51 61 -75 137 -174 428 -449
604 -573 330 -231 650 -380 991 -461 139 -33 220 -49 315 -61 30 -4 66 -8 79
-10 176 -28 573 -23 796 10 17 2 53 7 80 10 28 4 78 13 111 20 34 8 73 16 85
19 188 40 435 129 632 228 688 345 1283 1020 1513 1718 29 86 81 271 89 315
29 160 45 259 50 305 2 30 8 87 11 125 13 142 6 506 -11 607 -2 13 -7 46 -10
73 -3 28 -10 75 -15 105 -5 30 -11 66 -14 80 -18 108 -82 330 -141 485 -24 66
-160 347 -187 390 -7 10 -37 57 -66 104 -120 189 -258 358 -447 546 -333 332
-715 572 -1134 715 -50 17 -99 33 -108 35 -10 3 -36 9 -58 15 -69 18 -79 21
-100 25 -11 3 -30 7 -42 10 -48 11 -59 13 -103 20 -25 4 -53 9 -64 11 -10 2
-44 6 -75 10 -31 3 -65 8 -75 10 -51 9 -429 25 -439 18z m233 -868 c63 -3 126
-7 140 -10 14 -2 48 -7 75 -11 28 -3 95 -17 151 -30 390 -95 702 -273 1005
-575 109 -109 269 -296 269 -314 0 -2 20 -35 45 -73 167 -251 283 -604 310
-938 11 -133 3 -472 -11 -496 -1 -3 -6 -32 -9 -65 -4 -32 -8 -61 -10 -65 -2
-3 -7 -21 -10 -40 -26 -147 -104 -363 -191 -528 -104 -195 -213 -340 -389
-517 -253 -255 -510 -419 -820 -524 -162 -55 -299 -84 -509 -106 -49 -5 -346
-4 -401 1 -77 8 -138 15 -155 20 -8 2 -33 6 -55 10 -22 3 -47 7 -55 10 -8 2
-26 7 -40 9 -78 17 -126 29 -135 36 -5 4 -26 11 -45 15 -46 10 -247 96 -329
141 -183 101 -370 245 -526 406 -363 373 -550 782 -601 1308 -6 57 -5 342 0
380 3 19 8 60 11 90 5 51 8 72 19 140 22 130 81 318 146 463 40 90 141 272
172 312 4 6 42 55 84 110 90 117 265 295 382 389 349 279 752 432 1192 453 69
3 126 7 128 8 1 1 12 1 25 -1 12 -2 74 -5 137 -8z"/>
<path d="M3339 5526 c-2 -2 -35 -6 -74 -9 -169 -12 -429 -86 -610 -172 -208
-99 -428 -255 -624 -442 -30 -29 -53 -54 -51 -56 3 -3 68 -26 145 -52 77 -25
176 -59 220 -75 263 -94 453 -162 470 -170 11 -5 56 -23 100 -40 326 -127 794
-356 1024 -501 25 -16 48 -29 52 -29 4 0 6 19 4 43 -2 23 -6 89 -10 147 -4 58
-8 119 -9 135 -6 56 -20 190 -21 195 -1 3 -5 41 -9 85 -5 44 -9 87 -11 95 -1
8 -6 38 -9 65 -4 28 -10 66 -12 85 -19 134 -112 671 -118 677 -13 14 -444 31
-457 19z"/>
<path d="M3912 5452 c4 -26 10 -56 12 -67 2 -11 11 -54 19 -95 9 -41 18 -86
20 -100 3 -14 12 -63 21 -110 10 -47 26 -134 36 -195 11 -60 22 -121 25 -135
6 -35 26 -160 30 -193 6 -41 16 -109 20 -137 2 -14 7 -50 10 -80 3 -30 8 -68
10 -85 7 -55 14 -119 20 -200 4 -44 9 -93 11 -110 2 -16 7 -165 10 -330 4
-165 7 -301 9 -302 3 -4 275 179 378 254 184 134 420 319 572 447 44 37 87 73
95 79 8 7 52 45 97 85 l82 72 -45 97 c-125 270 -308 515 -517 691 -240 202
-495 330 -913 457 -8 2 -9 -10 -2 -43z"/>
<path d="M1820 4638 c-103 -155 -195 -339 -248 -499 -22 -68 -43 -135 -46
-149 -3 -14 -7 -36 -11 -50 -11 -50 -26 -147 -32 -210 -14 -128 -8 -403 11
-506 2 -11 7 -41 10 -67 4 -27 9 -56 11 -65 2 -10 13 -60 25 -112 11 -52 21
-101 22 -107 2 -22 22 -14 69 30 25 23 59 53 75 67 33 28 173 149 190 165 6 6
33 28 59 50 26 22 55 47 64 55 73 67 345 284 511 409 216 161 710 480 746 481
11 1 58 39 53 44 -11 9 -320 156 -439 209 -260 115 -942 377 -982 377 -4 0
-43 -55 -88 -122z"/>
<path d="M5375 4102 c-28 -26 -116 -103 -195 -171 -80 -68 -149 -129 -155
-136 -5 -6 -19 -17 -31 -25 -11 -8 -47 -37 -79 -65 -183 -157 -387 -315 -620
-481 -146 -104 -343 -228 -547 -344 -43 -24 -78 -46 -78 -49 1 -6 54 -33 290
-145 278 -131 634 -274 1019 -407 107 -38 114 -39 127 -22 50 64 151 224 197
313 116 219 181 427 210 672 13 104 15 368 4 443 -4 22 -9 65 -12 95 -8 70
-61 335 -72 354 -6 12 -19 5 -58 -32z"/>
<path d="M2724 3617 c-214 -143 -467 -329 -679 -500 -69 -56 -280 -230 -285
-236 -5 -6 -142 -123 -148 -127 -2 -1 22 -55 53 -120 193 -403 483 -710 859
-909 100 -53 268 -125 361 -154 39 -12 79 -26 90 -30 11 -5 41 -15 68 -24 46
-16 47 -16 47 5 0 12 -20 123 -45 247 -24 125 -47 244 -50 266 -4 22 -8 47
-10 55 -3 8 -7 32 -11 54 -3 21 -8 48 -10 60 -2 11 -7 35 -9 51 -21 118 -25
145 -30 185 -3 25 -7 52 -10 60 -2 8 -7 42 -10 75 -3 33 -7 67 -10 75 -2 8 -6
47 -10 85 -3 39 -8 81 -10 95 -5 27 -13 127 -24 290 -4 58 -8 208 -10 335 -1
126 -3 231 -5 232 -1 2 -52 -30 -112 -70z"/>
<path d="M3005 2981 c2 -25 7 -93 10 -151 8 -131 12 -178 20 -249 3 -31 8 -76
11 -101 2 -25 7 -61 9 -80 3 -19 7 -55 10 -80 3 -25 7 -56 10 -70 2 -14 7 -45
10 -70 3 -25 10 -70 15 -100 10 -58 21 -131 25 -166 2 -11 8 -45 14 -75 5 -30
12 -67 15 -84 7 -48 48 -260 49 -262 18 -18 397 -27 512 -13 136 17 170 22
175 25 3 2 26 6 50 10 76 11 302 90 413 144 126 62 250 138 372 230 98 74 295
247 295 260 0 4 -51 25 -112 45 -62 20 -120 40 -128 43 -8 3 -82 29 -165 58
-350 122 -615 225 -777 299 -31 14 -60 26 -63 26 -10 0 -418 202 -500 248 -38
21 -116 66 -172 99 l-101 61 3 -47z"/>
</g>
</svg>
